<?xml version="1.0" standalone="no"?>
<!DOCTYPE svg PUBLIC "-//W3C//DTD SVG 20010904//EN"
 "http://www.w3.org/TR/2001/REC-SVG-20010904/DTD/svg10.dtd">
<svg version="1.0" xmlns="http://www.w3.org/2000/svg"
 width="1024.000000pt" height="1024.000000pt" viewBox="0 0 1024.000000 1024.000000"
 preserveAspectRatio="xMidYMid meet">

<g transform="translate(0.000000,1024.000000) scale(0.100000,-0.100000)"
fill="#000000" stroke="none">
<path d="M4760 8444 c-300 -15 -674 -60 -938 -115 -154 -31 -408 -95 -502
-126 l-55 -18 -3 -935 c-3 -969 0 -1079 38 -1255 61 -281 200 -565 392 -804
81 -99 251 -268 358 -354 120 -96 322 -231 475 -315 210 -115 542 -262 592
-262 57 0 543 232 751 358 581 354 929 789 1066 1337 43 172 46 251 46 1264
l0 967 -52 17 c-115 36 -451 118 -583 141 -414 75 -656 97 -1135 100 -206 2
-409 2 -450 0z m965 -268 c325 -29 635 -81 908 -153 l98 -26 -4 -916 c-3 -895
-4 -918 -25 -1015 -57 -264 -174 -506 -342 -711 -63 -76 -235 -246 -315 -311
-193 -158 -464 -315 -787 -459 l-108 -47 -107 62 c-434 253 -656 463 -765 722
-104 247 -87 573 43 831 111 219 308 417 532 533 l87 45 0 -489 c0 -537 -1
-549 -60 -631 -32 -44 -113 -91 -157 -91 -20 0 -23 -5 -23 -40 l0 -40 420 0
420 0 0 39 c0 37 -1 39 -39 45 -101 16 -182 116 -201 246 -5 36 -10 286 -10
557 l0 492 45 7 c111 16 279 -23 361 -84 240 -181 137 -519 -208 -688 l-58
-28 0 -53 c0 -36 4 -53 13 -53 34 0 221 55 302 89 116 47 250 136 310 204 129
146 156 328 75 493 -90 183 -362 294 -722 294 l-118 0 0 250 0 250 289 0 c159
0 325 -5 368 -11 87 -12 173 -46 217 -87 37 -35 84 -134 92 -194 7 -48 7 -48
45 -48 l39 0 0 300 0 300 -1220 0 -1220 0 0 -300 0 -300 34 0 c32 0 34 3 45
48 32 127 101 216 195 251 86 32 192 41 487 41 l279 0 -2 -281 -3 -281 -120
-52 c-545 -234 -905 -635 -1039 -1156 -13 -52 -27 -113 -31 -135 l-7 -40 -53
106 c-67 132 -117 276 -147 416 -22 107 -23 117 -26 1013 l-3 906 153 37 c341
84 695 134 1093 157 209 12 766 4 970 -14z"/>
<path d="M3298 3752 c-41 -2 -58 -7 -62 -19 -4 -9 -54 -149 -112 -312 -152
-429 -146 -415 -189 -423 -12 -2 -21 -13 -23 -26 -3 -22 -2 -22 121 -22 107 0
126 2 131 16 8 21 4 25 -35 33 -53 11 -57 29 -26 124 l27 83 130 0 130 0 25
-75 c36 -108 34 -118 -19 -132 -36 -9 -43 -14 -39 -30 5 -18 17 -19 184 -19
l179 0 -3 22 c-3 15 -14 25 -34 30 -17 4 -35 14 -41 20 -5 7 -70 173 -143 368
-72 195 -135 357 -138 360 -3 3 -31 4 -63 2z m16 -330 c25 -73 46 -135 46
-137 0 -2 -45 -5 -100 -7 -55 -2 -100 -1 -100 2 0 19 96 287 101 282 4 -4 27
-67 53 -140z"/>
<path d="M4897 3746 c-56 -15 -114 -59 -142 -107 -32 -54 -28 -160 8 -221 33
-57 78 -88 217 -155 122 -57 160 -94 160 -152 0 -84 -115 -128 -224 -86 -53
21 -118 86 -137 139 -9 24 -18 35 -27 31 -7 -3 -17 -5 -20 -5 -8 0 2 -159 12
-207 8 -37 30 -43 48 -14 12 19 13 19 62 -1 73 -29 205 -35 280 -14 145 43
210 208 130 333 -34 51 -95 91 -218 143 -121 51 -143 65 -162 101 -41 80 24
159 132 159 69 0 155 -55 190 -122 16 -32 54 -39 54 -10 0 9 -7 55 -15 102 -8
47 -15 86 -15 88 0 11 -32 -2 -40 -17 -10 -20 -11 -20 -56 0 -58 26 -173 34
-237 15z"/>
<path d="M1285 3655 c-4 -52 -8 -98 -9 -102 0 -5 9 -9 22 -11 14 -2 22 2 22
11 0 25 57 93 86 105 16 6 55 12 87 15 l57 4 0 -312 c0 -301 -1 -313 -21 -339
-12 -15 -30 -26 -45 -26 -19 0 -24 -5 -24 -25 l0 -25 176 0 175 0 -3 23 c-2
15 -11 23 -28 25 -14 2 -33 11 -42 19 -16 15 -18 44 -18 337 l0 322 75 -7 c85
-7 110 -23 140 -90 12 -25 25 -39 37 -39 17 0 18 6 13 93 -4 50 -8 98 -10 105
-3 9 -81 12 -344 12 l-339 0 -7 -95z"/>
<path d="M2070 3726 c0 -19 7 -26 30 -31 57 -12 60 -32 60 -353 0 -278 -1
-290 -21 -316 -12 -15 -30 -26 -45 -26 -19 0 -24 -5 -24 -25 l0 -25 176 0
c175 0 175 0 172 22 -2 14 -13 24 -33 30 -49 13 -55 30 -55 160 l0 118 38 0
c38 0 39 0 92 -97 29 -54 71 -128 93 -165 l39 -68 124 0 c116 0 124 1 124 19
0 13 -11 23 -34 31 -18 6 -42 21 -54 33 -18 20 -182 273 -182 282 0 2 23 16
51 31 34 19 59 42 76 71 22 38 25 52 21 117 -3 65 -7 79 -34 113 -70 85 -138
103 -411 103 l-203 0 0 -24z m400 -68 c75 -38 103 -137 62 -217 -26 -53 -60
-72 -136 -78 l-66 -6 0 162 0 161 48 0 c30 0 65 -9 92 -22z"/>
<path d="M3790 3725 c0 -18 7 -26 25 -31 53 -13 55 -24 55 -339 0 -320 -2
-332 -60 -351 -23 -8 -34 -18 -35 -33 -2 -21 1 -21 137 -21 l138 0 0 25 c0 20
-5 25 -24 25 -15 0 -33 11 -45 26 -20 25 -21 39 -21 273 0 235 1 245 18 224 9
-12 103 -131 209 -265 268 -340 250 -321 295 -313 l37 7 3 350 3 350 28 24
c15 13 35 24 43 24 8 0 14 10 14 25 l0 26 -132 -3 c-126 -3 -131 -4 -134 -25
-3 -17 3 -23 27 -28 54 -12 58 -29 61 -263 2 -116 2 -212 1 -212 -4 0 -270
344 -343 443 l-64 87 -118 0 -118 0 0 -25z"/>
<path d="M5419 3748 c-9 -30 -7 -48 6 -48 29 0 64 -23 75 -49 7 -19 10 -121 8
-318 -3 -267 -5 -293 -22 -311 -10 -12 -30 -22 -44 -24 -17 -2 -26 -10 -28
-25 l-4 -23 174 0 c164 0 174 1 179 19 6 24 0 31 -25 31 -10 0 -27 9 -38 20
-19 19 -20 33 -20 325 l0 306 25 24 c13 14 31 25 40 25 9 0 15 9 15 25 l0 25
-170 0 c-93 0 -170 -1 -171 -2z"/>
<path d="M5916 3698 c-19 -153 -19 -148 -1 -154 10 -4 20 -1 25 7 59 104 82
119 174 119 l66 0 0 -309 c0 -297 -1 -309 -21 -335 -12 -15 -30 -26 -45 -26
-19 0 -24 -5 -24 -25 l0 -25 176 0 175 0 -3 23 c-2 15 -11 23 -28 25 -14 2
-33 11 -42 19 -16 15 -18 44 -18 337 l0 321 68 -5 c83 -6 115 -26 145 -86 16
-34 26 -44 42 -42 15 2 19 10 18 28 -1 14 -5 60 -8 103 l-7 77 -343 0 -343 0
-6 -52z"/>
<path d="M6750 3725 c0 -19 5 -25 20 -25 12 0 32 -11 45 -25 l25 -24 0 -306
c0 -292 -1 -306 -20 -325 -11 -11 -31 -20 -45 -20 -20 0 -25 -5 -25 -25 l0
-25 314 0 314 0 11 63 c24 140 25 153 5 161 -11 4 -20 2 -22 -4 -10 -30 -71
-107 -101 -127 -30 -20 -46 -23 -137 -23 -92 0 -104 2 -114 19 -6 12 -10 126
-10 301 0 317 5 345 60 356 23 5 30 12 30 30 l0 24 -175 0 -175 0 0 -25z"/>
<path d="M7510 3727 c0 -17 9 -26 34 -35 55 -20 57 -36 54 -359 -3 -270 -4
-292 -22 -312 -11 -12 -30 -21 -43 -21 -18 0 -23 -5 -23 -25 l0 -25 313 0 314
0 12 83 c7 45 15 94 18 109 4 20 1 27 -13 30 -13 2 -25 -11 -46 -52 -45 -88
-61 -95 -208 -95 l-125 0 -3 153 -3 152 65 0 c84 0 112 -12 133 -55 32 -66 43
-46 43 80 0 95 -3 115 -15 115 -8 0 -21 -13 -30 -30 -18 -34 -63 -50 -142 -50
l-53 0 0 145 0 145 84 0 c122 0 166 -22 207 -102 13 -25 26 -38 40 -38 15 0
19 5 15 18 -2 9 -8 56 -12 105 l-6 87 -294 0 -294 0 0 -23z"/>
<path d="M8230 3725 c0 -17 6 -25 18 -25 31 -1 51 -25 136 -167 164 -275 156
-255 156 -374 0 -118 -10 -143 -63 -157 -22 -6 -33 -15 -35 -30 -3 -22 -3 -22
177 -22 l181 0 0 25 c0 20 -5 25 -24 25 -15 0 -33 11 -45 26 -18 23 -21 40
-21 138 l1 111 118 200 c94 159 124 203 149 215 21 10 32 22 32 38 0 22 -2 22
-130 22 l-130 0 0 -25 c0 -17 5 -25 18 -25 25 0 62 -28 62 -47 0 -17 -150
-283 -159 -283 -7 0 -154 267 -159 288 -6 20 18 42 45 42 20 0 24 4 21 23 -3
22 -5 22 -175 25 l-173 2 0 -25z"/>
<path d="M2023 2530 c-90 -54 -82 -206 12 -246 99 -41 199 22 199 127 0 28 -7
57 -18 73 -41 63 -131 84 -193 46z m132 -55 c36 -35 34 -88 -4 -126 -38 -38
-74 -38 -112 0 -37 37 -38 79 -3 120 33 40 83 43 119 6z"/>
<path d="M2325 2529 c4 -12 29 -74 55 -138 40 -99 51 -116 71 -119 22 -2 29 9
81 138 l56 141 -31 -3 c-30 -3 -34 -8 -69 -98 -36 -93 -37 -94 -48 -65 -59
159 -62 165 -92 165 -25 0 -28 -3 -23 -21z"/>
<path d="M2690 2410 l0 -140 90 0 c89 0 90 0 90 25 0 24 -3 25 -60 25 l-60 0
0 40 0 40 50 0 c43 0 50 3 50 20 0 17 -7 20 -50 20 -49 0 -50 1 -50 30 0 30 1
30 55 30 52 0 55 1 55 25 0 25 -1 25 -85 25 l-85 0 0 -140z"/>
<path d="M2990 2410 l0 -140 25 0 c24 0 25 3 25 55 0 75 24 75 66 3 23 -41 36
-54 57 -56 15 -2 27 0 27 4 0 4 -14 32 -30 61 l-31 54 21 26 c11 14 20 37 20
52 -1 53 -43 81 -124 81 l-56 0 0 -140z m121 74 c19 -23 -1 -48 -40 -52 -30
-3 -31 -2 -31 32 0 33 2 36 29 36 16 0 34 -7 42 -16z"/>
<path d="M3325 2525 c-30 -29 -33 -75 -7 -98 10 -9 34 -23 53 -31 48 -20 65
-41 49 -61 -16 -19 -44 -19 -74 0 -26 17 -56 11 -56 -11 0 -20 59 -54 93 -54
52 0 96 35 97 78 0 38 -18 61 -70 87 -36 18 -50 31 -50 46 0 22 17 23 77 4 34
-11 43 23 14 47 -34 27 -96 24 -126 -7z"/>
<path d="M3600 2410 l0 -141 87 3 c80 3 86 5 89 25 3 20 -1 22 -58 25 l-62 3
0 35 0 35 52 3 c44 3 52 6 52 23 0 16 -7 19 -48 19 -57 0 -61 2 -54 35 4 23 9
25 58 25 51 0 54 1 54 25 0 25 -1 25 -85 25 l-85 0 0 -140z"/>
<path d="M3971 2528 c-5 -13 -27 -70 -50 -128 -22 -58 -41 -111 -41 -117 0 -7
11 -13 24 -13 18 0 27 8 35 30 9 28 13 30 65 30 52 0 57 -2 71 -30 11 -21 23
-30 40 -30 14 0 25 3 24 8 0 4 -24 66 -53 137 -47 119 -54 130 -79 133 -21 3
-29 -2 -36 -20z m42 -156 c-19 -2 -37 -1 -39 1 -2 2 4 25 13 51 l18 48 21 -49
21 -48 -34 -3z"/>
<path d="M4276 2529 c-19 -15 -26 -30 -26 -53 0 -37 15 -54 78 -85 34 -17 43
-27 40 -44 -4 -29 -34 -34 -75 -11 -30 15 -35 16 -49 3 -13 -13 -11 -18 12
-40 20 -18 36 -24 74 -24 55 0 85 21 95 65 9 41 -8 65 -68 97 -28 15 -52 35
-52 43 0 18 43 26 58 11 14 -14 44 -14 53 1 4 6 -4 21 -20 35 -34 29 -84 30
-120 2z"/>
<path d="M4710 2410 l0 -140 85 0 c84 0 85 0 85 25 0 24 -3 25 -60 25 l-60 0
0 40 0 40 50 0 c45 0 50 2 50 23 0 20 -4 22 -50 19 -50 -4 -50 -4 -50 27 l0
31 60 0 c57 0 60 1 60 25 0 25 -1 25 -85 25 l-85 0 0 -140z"/>
<path d="M5010 2410 l0 -140 48 0 c69 0 114 16 148 51 25 26 29 38 29 89 0 48
-4 63 -25 85 -35 38 -80 55 -145 55 l-55 0 0 -140z m147 66 c22 -19 28 -32 28
-65 0 -50 -26 -79 -78 -88 l-37 -6 0 92 0 91 29 0 c17 0 42 -10 58 -24z"/>
<path d="M5353 2534 c-3 -8 -3 -58 -1 -110 5 -81 9 -98 28 -119 42 -45 121
-45 166 0 22 23 24 31 24 135 l0 110 -25 0 c-25 0 -25 0 -25 -98 0 -106 -11
-132 -58 -132 -42 0 -52 24 -52 131 l0 99 -25 0 c-14 0 -28 -7 -32 -16z"/>
<path d="M5773 2530 c-48 -29 -67 -64 -66 -122 1 -58 23 -94 74 -121 43 -23
106 -18 149 13 29 21 30 24 16 39 -15 15 -19 15 -47 -2 -44 -25 -82 -22 -113
9 -75 76 24 200 111 139 24 -17 53 -10 53 11 0 23 -61 54 -105 54 -22 0 -54
-9 -72 -20z"/>
<path d="M6131 2528 c-5 -13 -28 -70 -51 -128 -23 -58 -44 -111 -47 -117 -3
-9 4 -13 21 -13 18 0 30 8 41 30 14 28 19 30 71 30 53 0 56 -2 67 -30 9 -23
17 -30 39 -30 15 0 28 1 28 3 0 1 -24 63 -54 137 -48 121 -57 135 -80 138 -20
3 -28 -2 -35 -20z m63 -136 c7 -20 4 -22 -28 -22 -41 0 -41 0 -19 58 l16 43
12 -28 c7 -16 16 -39 19 -51z"/>
<path d="M6360 2541 c0 -5 -3 -16 -6 -25 -5 -13 2 -16 40 -16 l46 0 0 -115 0
-115 25 0 25 0 0 115 0 115 40 0 c36 0 40 3 40 25 l0 25 -105 0 c-58 0 -105
-4 -105 -9z"/>
<path d="M6700 2410 l0 -140 25 0 25 0 0 140 0 140 -25 0 -25 0 0 -140z"/>
<path d="M6943 2530 c-91 -55 -82 -206 14 -247 65 -27 142 -4 179 52 22 34 22
116 0 149 -41 63 -131 84 -193 46z m132 -55 c28 -27 34 -88 12 -116 -35 -46
-88 -50 -128 -10 -37 37 -38 79 -3 120 33 40 83 43 119 6z"/>
<path d="M7280 2410 l0 -140 25 0 c25 0 25 0 25 97 l0 98 66 -98 c57 -85 68
-98 90 -95 l25 3 0 135 0 135 -25 3 -26 3 0 -93 0 -93 -61 93 c-54 80 -65 92
-90 92 l-29 0 0 -140z"/>
<path d="M7681 2418 c-28 -73 -51 -136 -51 -140 0 -5 11 -8 24 -8 17 0 27 9
36 30 12 28 15 30 70 30 55 0 59 -1 69 -30 8 -23 16 -30 37 -30 21 0 25 4 20
18 -3 9 -27 72 -54 139 -43 114 -49 123 -73 123 -24 0 -30 -10 -78 -132z m100
-3 l17 -45 -40 0 c-28 0 -38 4 -34 13 2 6 10 29 17 50 14 43 17 42 40 -18z"/>
<path d="M8010 2410 l0 -140 78 0 c43 0 81 3 84 6 3 3 4 14 1 25 -4 16 -14 19
-59 19 l-54 0 0 115 0 115 -25 0 -25 0 0 -140z"/>
<path d="M3464 2031 c-99 -60 -75 -221 38 -251 45 -13 106 1 132 29 15 16 15
20 1 31 -12 10 -22 9 -50 -5 -49 -22 -91 -12 -116 28 -51 83 44 175 125 122
19 -12 25 -13 40 -2 17 12 16 15 -14 40 -39 33 -109 37 -156 8z"/>
<path d="M3804 2031 c-41 -25 -68 -91 -59 -143 23 -134 200 -155 264 -31 27
53 2 141 -51 173 -42 26 -113 26 -154 1z m112 -37 c46 -22 64 -76 40 -123 -16
-30 -49 -51 -81 -51 -7 0 -27 12 -44 26 -24 20 -31 34 -31 63 0 50 33 92 78
100 2 1 19 -6 38 -15z"/>
<path d="M4140 1915 l0 -135 25 0 c24 0 24 2 27 92 l3 92 60 -92 c53 -82 63
-92 90 -92 l30 0 0 135 0 135 -27 0 -28 0 0 -92 0 -91 -61 91 c-54 81 -65 92
-90 92 l-29 0 0 -135z"/>
<path d="M4535 2025 c-47 -46 -25 -99 54 -131 45 -18 57 -37 35 -59 -20 -20
-36 -19 -66 5 -21 16 -28 17 -42 7 -38 -28 18 -72 87 -71 31 1 46 8 64 28 45
53 22 107 -60 141 -25 10 -37 22 -37 35 0 23 38 28 70 8 16 -10 23 -10 36 3
14 15 13 18 -12 38 -38 30 -98 28 -129 -4z"/>
<path d="M4810 1958 c0 -117 17 -157 74 -176 44 -14 105 -3 127 25 9 10 16 55
19 130 l5 113 -27 0 -28 0 0 -98 c0 -83 -3 -102 -18 -115 -24 -22 -55 -21 -75
1 -13 15 -17 39 -17 115 l0 97 -30 0 -30 0 0 -92z"/>
<path d="M5170 1915 l0 -135 85 0 c78 0 85 2 85 20 0 18 -7 20 -60 20 l-60 0
0 115 0 115 -25 0 -25 0 0 -135z"/>
<path d="M5392 2028 c2 -19 10 -24 43 -26 l40 -3 -3 -109 -3 -110 30 0 31 0 0
110 0 110 40 0 c36 0 40 3 40 25 l0 25 -111 0 c-109 0 -110 0 -107 -22z"/>
<path d="M5726 1928 c-26 -68 -50 -129 -53 -135 -3 -9 5 -13 25 -13 23 0 31 5
36 25 6 23 11 25 66 25 55 0 60 -2 66 -25 5 -20 13 -25 36 -25 20 0 28 4 25
13 -3 6 -26 67 -52 135 -45 114 -50 122 -75 122 -25 0 -30 -8 -74 -122z m90
10 c6 -18 14 -41 19 -50 6 -16 1 -18 -35 -18 -29 0 -40 4 -36 13 2 6 10 29 17
50 7 20 15 37 18 37 3 0 11 -15 17 -32z"/>
<path d="M6050 1915 l0 -135 28 0 27 0 -3 92 c-3 107 -6 108 81 -21 41 -61 52
-71 78 -71 l29 0 0 135 0 135 -31 0 -31 0 4 -91 c3 -102 9 -104 -75 20 -41 61
-52 71 -78 71 l-29 0 0 -135z"/>
<path d="M6400 2025 c0 -22 4 -25 40 -25 l40 0 0 -110 0 -110 25 0 25 0 0 110
0 110 40 0 c36 0 40 3 40 25 l0 25 -105 0 -105 0 0 -25z"/>
</g>
</svg>
